<?xml version="1.0" encoding="UTF-8" standalone="no"?>
<svg
   xmlns="http://www.w3.org/2000/svg"
   version="1.1"
   width="110"
   height="110"
   id="logo">
  <path
     id="outline"
     d = "M 30 0 H 40 V 50 H 30 V 30 H 15 A 5 5 0 0 0 10 35 V 75 A 5 5 0 0 0 15 80 H 30 V 60 H 40 V 110 H 30 V 90 H 15 A 15 15 0 0 1 0 75 V 35 A 15 15 0 0 1 15 20 H 30 z M 70 0 H 80 V 20 H 95 A 15 15 0 0 1 110 35 V 75 A 15 15 0 0 1 95 90 H 80 V 110 H 70 V 60 H 80 V 80 H 95 A 5 5 0 0 0 100 75 V 35 A 5 5 0 0 0 95 30 H 80 V 50 H 70 V 40 H 50 V 30 H 70 V 20 H 50 V 10 H 70 z M 50 60 H 60 V 80 H 50 z M 50 90 H 60 V 110 H 50 z"
     style="fill:#000000;stroke:none" />
</svg>
